# Aspose.3D Wavefront OBJ Exporter
# Copyright 2004-2023 Aspose Pty Ltd.
# File created: 07/04/2023 23:32:55

mtllib material.lib

#
# object Node_0
#

v -0.50039810733869672 0 0.49960159463807944
v -0.49960159463807944 0 -0.50039810733869672
v 0.49960159463807944 0 0.50039810733869672
v 0.50039810733869672 0 -0.49960159463807944
# 4 vertices

vn 0 1 0
# 1 vertex normals

vt 0 0 1
vt 0 1 1
vt 1 0 1
vt 1 1 1
# 4 texture coords

g Node_0
usemtl pxrUsdPreviewSurface1SG
s 1
f 3/3/1 4/4/1 2/2/1 1/1/1
#1 polygons

